<?xml version="1.0" encoding="UTF-8" standalone="no"?>
<!DOCTYPE svg PUBLIC "-//W3C//DTD SVG 1.1//EN"
 "http://www.w3.org/Graphics/SVG/1.1/DTD/svg11.dtd">
<!-- Generated by graphviz version 2.47.0 (20210316.0004)
 -->
<!-- Title: dependencies Pages: 1 -->
<svg width="2219pt" height="284pt"
 viewBox="0.00 0.00 2219.00 284.00" xmlns="http://www.w3.org/2000/svg" xmlns:xlink="http://www.w3.org/1999/xlink">
<g id="graph0" class="graph" transform="scale(1 1) rotate(0) translate(4 280)">
<title>dependencies</title>
<polygon fill="white" stroke="transparent" points="-4,4 -4,-280 2215,-280 2215,4 -4,4"/>
<text text-anchor="start" x="1084.51" y="-42.4" font-family="Times-12" font-weight="bold" font-size="14.00">Legend</text>
<polygon fill="#ffffb3" stroke="transparent" points="871.5,-10 871.5,-30 891.5,-30 891.5,-10 871.5,-10"/>
<text text-anchor="start" x="895.13" y="-15.4" font-family="Times-12" font-size="14.00"> &#160;Declarations</text>
<polygon fill="#8dd3c7" stroke="transparent" points="984.5,-10 984.5,-30 1004.5,-30 1004.5,-10 984.5,-10"/>
<text text-anchor="start" x="1008.23" y="-15.4" font-family="Times-12" font-size="14.00"> &#160;Module</text>
<polygon fill="#80b1d3" stroke="transparent" points="1070.5,-10 1070.5,-30 1090.5,-30 1090.5,-10 1070.5,-10"/>
<text text-anchor="start" x="1094.28" y="-15.4" font-family="Times-12" font-size="14.00"> &#160;Bootstrap</text>
<polygon fill="#fdb462" stroke="transparent" points="1167.5,-10 1167.5,-30 1187.5,-30 1187.5,-10 1167.5,-10"/>
<text text-anchor="start" x="1191.17" y="-15.4" font-family="Times-12" font-size="14.00"> &#160;Providers</text>
<polygon fill="#fb8072" stroke="transparent" points="1263.5,-10 1263.5,-30 1283.5,-30 1283.5,-10 1263.5,-10"/>
<text text-anchor="start" x="1287.23" y="-15.4" font-family="Times-12" font-size="14.00"> &#160;Exports</text>
<g id="clust1" class="cluster">
<title>cluster_AppModule</title>
<polygon fill="none" stroke="black" stroke-dasharray="1,5" points="8,-70 8,-268 2203,-268 2203,-70 8,-70"/>
</g>
<g id="clust2" class="cluster">
<title>cluster_AppModule_declarations</title>
<polygon fill="none" stroke="black" points="168,-78 168,-130 2195,-130 2195,-78 168,-78"/>
</g>
<g id="clust15" class="cluster">
<title>cluster_AppModule_imports</title>
<polygon fill="none" stroke="black" points="16,-78 16,-130 160,-130 160,-78 16,-78"/>
</g>
<g id="clust17" class="cluster">
<title>cluster_AppModule_bootstrap</title>
<polygon fill="none" stroke="black" points="997,-208 997,-260 1121,-260 1121,-208 997,-208"/>
</g>
<!-- AddToPlaylistDialogComponent -->
<g id="node1" class="node">
<title>AddToPlaylistDialogComponent</title>
<polygon fill="#ffffb3" stroke="black" points="2186.6,-122 1985.4,-122 1985.4,-86 2186.6,-86 2186.6,-122"/>
<text text-anchor="middle" x="2086" y="-99.8" font-family="Times,serif" font-size="14.00">AddToPlaylistDialogComponent</text>
</g>
<!-- AppModule -->
<g id="node13" class="node">
<title>AppModule</title>
<polygon fill="#8dd3c7" stroke="black" points="1100.66,-187 1097.66,-191 1076.66,-191 1073.66,-187 1017.34,-187 1017.34,-151 1100.66,-151 1100.66,-187"/>
<text text-anchor="middle" x="1059" y="-164.8" font-family="Times,serif" font-size="14.00">AppModule</text>
</g>
<!-- AddToPlaylistDialogComponent&#45;&gt;AppModule -->
<g id="edge1" class="edge">
<title>AddToPlaylistDialogComponent&#45;&gt;AppModule</title>
<path fill="none" stroke="black" d="M2086,-122.09C2086,-145.13 2086,-182 2086,-182 2086,-182 1110.85,-182 1110.85,-182"/>
<polygon fill="black" stroke="black" points="1110.85,-178.5 1100.85,-182 1110.85,-185.5 1110.85,-178.5"/>
</g>
<!-- AppComponent -->
<g id="node2" class="node">
<title>AppComponent</title>
<polygon fill="#ffffb3" stroke="black" points="1967.94,-122 1862.06,-122 1862.06,-86 1967.94,-86 1967.94,-122"/>
<text text-anchor="middle" x="1915" y="-99.8" font-family="Times,serif" font-size="14.00">AppComponent</text>
</g>
<!-- AppComponent&#45;&gt;AppModule -->
<g id="edge2" class="edge">
<title>AppComponent&#45;&gt;AppModule</title>
<path fill="none" stroke="black" d="M1915,-122.04C1915,-143.66 1915,-177 1915,-177 1915,-177 1110.87,-177 1110.87,-177"/>
<polygon fill="black" stroke="black" points="1110.87,-173.5 1100.87,-177 1110.87,-180.5 1110.87,-173.5"/>
</g>
<!-- ArtistSongsComponent -->
<g id="node3" class="node">
<title>ArtistSongsComponent</title>
<polygon fill="#ffffb3" stroke="black" points="1844.94,-122 1697.06,-122 1697.06,-86 1844.94,-86 1844.94,-122"/>
<text text-anchor="middle" x="1771" y="-99.8" font-family="Times,serif" font-size="14.00">ArtistSongsComponent</text>
</g>
<!-- ArtistSongsComponent&#45;&gt;AppModule -->
<g id="edge3" class="edge">
<title>ArtistSongsComponent&#45;&gt;AppModule</title>
<path fill="none" stroke="black" d="M1771,-122.22C1771,-142.37 1771,-172 1771,-172 1771,-172 1110.88,-172 1110.88,-172"/>
<polygon fill="black" stroke="black" points="1110.88,-168.5 1100.88,-172 1110.88,-175.5 1110.88,-168.5"/>
</g>
<!-- BaseLayoutComponent -->
<g id="node4" class="node">
<title>BaseLayoutComponent</title>
<polygon fill="#ffffb3" stroke="black" points="1679.2,-122 1530.8,-122 1530.8,-86 1679.2,-86 1679.2,-122"/>
<text text-anchor="middle" x="1605" y="-99.8" font-family="Times,serif" font-size="14.00">BaseLayoutComponent</text>
</g>
<!-- BaseLayoutComponent&#45;&gt;AppModule -->
<g id="edge4" class="edge">
<title>BaseLayoutComponent&#45;&gt;AppModule</title>
<path fill="none" stroke="black" d="M1605,-122.22C1605,-140.83 1605,-167 1605,-167 1605,-167 1110.94,-167 1110.94,-167"/>
<polygon fill="black" stroke="black" points="1110.94,-163.5 1100.94,-167 1110.94,-170.5 1110.94,-163.5"/>
</g>
<!-- CreatePlaylistDialogComponent -->
<g id="node5" class="node">
<title>CreatePlaylistDialogComponent</title>
<polygon fill="#ffffb3" stroke="black" points="1512.97,-122 1315.03,-122 1315.03,-86 1512.97,-86 1512.97,-122"/>
<text text-anchor="middle" x="1414" y="-99.8" font-family="Times,serif" font-size="14.00">CreatePlaylistDialogComponent</text>
</g>
<!-- CreatePlaylistDialogComponent&#45;&gt;AppModule -->
<g id="edge5" class="edge">
<title>CreatePlaylistDialogComponent&#45;&gt;AppModule</title>
<path fill="none" stroke="black" d="M1414,-122.03C1414,-139.06 1414,-162 1414,-162 1414,-162 1110.77,-162 1110.77,-162"/>
<polygon fill="black" stroke="black" points="1110.77,-158.5 1100.77,-162 1110.77,-165.5 1110.77,-158.5"/>
</g>
<!-- FavoriteSongsComponent -->
<g id="node6" class="node">
<title>FavoriteSongsComponent</title>
<polygon fill="#ffffb3" stroke="black" points="1297.21,-122 1134.79,-122 1134.79,-86 1297.21,-86 1297.21,-122"/>
<text text-anchor="middle" x="1216" y="-99.8" font-family="Times,serif" font-size="14.00">FavoriteSongsComponent</text>
</g>
<!-- FavoriteSongsComponent&#45;&gt;AppModule -->
<g id="edge6" class="edge">
<title>FavoriteSongsComponent&#45;&gt;AppModule</title>
<path fill="none" stroke="black" d="M1216,-122.24C1216,-137.57 1216,-157 1216,-157 1216,-157 1110.66,-157 1110.66,-157"/>
<polygon fill="black" stroke="black" points="1110.66,-153.5 1100.66,-157 1110.66,-160.5 1110.66,-153.5"/>
</g>
<!-- HomeComponent -->
<g id="node7" class="node">
<title>HomeComponent</title>
<polygon fill="#ffffb3" stroke="black" points="1116.55,-122 1001.45,-122 1001.45,-86 1116.55,-86 1116.55,-122"/>
<text text-anchor="middle" x="1059" y="-99.8" font-family="Times,serif" font-size="14.00">HomeComponent</text>
</g>
<!-- HomeComponent&#45;&gt;AppModule -->
<g id="edge7" class="edge">
<title>HomeComponent&#45;&gt;AppModule</title>
<path fill="none" stroke="black" d="M1059,-122.11C1059,-122.11 1059,-140.99 1059,-140.99"/>
<polygon fill="black" stroke="black" points="1055.5,-140.99 1059,-150.99 1062.5,-140.99 1055.5,-140.99"/>
</g>
<!-- LoginFormComponent -->
<g id="node8" class="node">
<title>LoginFormComponent</title>
<polygon fill="#ffffb3" stroke="black" points="983.61,-122 838.39,-122 838.39,-86 983.61,-86 983.61,-122"/>
<text text-anchor="middle" x="911" y="-99.8" font-family="Times,serif" font-size="14.00">LoginFormComponent</text>
</g>
<!-- LoginFormComponent&#45;&gt;AppModule -->
<g id="edge8" class="edge">
<title>LoginFormComponent&#45;&gt;AppModule</title>
<path fill="none" stroke="black" d="M911,-122.24C911,-137.57 911,-157 911,-157 911,-157 1006.99,-157 1006.99,-157"/>
<polygon fill="black" stroke="black" points="1006.99,-160.5 1016.99,-157 1006.98,-153.5 1006.99,-160.5"/>
</g>
<!-- NavBarComponent -->
<g id="node9" class="node">
<title>NavBarComponent</title>
<polygon fill="#ffffb3" stroke="black" points="820.37,-122 695.63,-122 695.63,-86 820.37,-86 820.37,-122"/>
<text text-anchor="middle" x="758" y="-99.8" font-family="Times,serif" font-size="14.00">NavBarComponent</text>
</g>
<!-- NavBarComponent&#45;&gt;AppModule -->
<g id="edge9" class="edge">
<title>NavBarComponent&#45;&gt;AppModule</title>
<path fill="none" stroke="black" d="M758,-122.03C758,-139.06 758,-162 758,-162 758,-162 1007.15,-162 1007.15,-162"/>
<polygon fill="black" stroke="black" points="1007.15,-165.5 1017.15,-162 1007.15,-158.5 1007.15,-165.5"/>
</g>
<!-- PlaylistSongsComponent -->
<g id="node10" class="node">
<title>PlaylistSongsComponent</title>
<polygon fill="#ffffb3" stroke="black" points="677.56,-122 520.44,-122 520.44,-86 677.56,-86 677.56,-122"/>
<text text-anchor="middle" x="599" y="-99.8" font-family="Times,serif" font-size="14.00">PlaylistSongsComponent</text>
</g>
<!-- PlaylistSongsComponent&#45;&gt;AppModule -->
<g id="edge10" class="edge">
<title>PlaylistSongsComponent&#45;&gt;AppModule</title>
<path fill="none" stroke="black" d="M599,-122.22C599,-140.83 599,-167 599,-167 599,-167 1006.96,-167 1006.96,-167"/>
<polygon fill="black" stroke="black" points="1006.96,-170.5 1016.96,-167 1006.96,-163.5 1006.96,-170.5"/>
</g>
<!-- SiteLayoutComponent -->
<g id="node11" class="node">
<title>SiteLayoutComponent</title>
<polygon fill="#ffffb3" stroke="black" points="502.27,-122 359.73,-122 359.73,-86 502.27,-86 502.27,-122"/>
<text text-anchor="middle" x="431" y="-99.8" font-family="Times,serif" font-size="14.00">SiteLayoutComponent</text>
</g>
<!-- SiteLayoutComponent&#45;&gt;AppModule -->
<g id="edge11" class="edge">
<title>SiteLayoutComponent&#45;&gt;AppModule</title>
<path fill="none" stroke="black" d="M431,-122.22C431,-142.37 431,-172 431,-172 431,-172 1007.31,-172 1007.31,-172"/>
<polygon fill="black" stroke="black" points="1007.31,-175.5 1017.31,-172 1007.31,-168.5 1007.31,-175.5"/>
</g>
<!-- SongsByGenreComponent -->
<g id="node12" class="node">
<title>SongsByGenreComponent</title>
<polygon fill="#ffffb3" stroke="black" points="342.09,-122 175.91,-122 175.91,-86 342.09,-86 342.09,-122"/>
<text text-anchor="middle" x="259" y="-99.8" font-family="Times,serif" font-size="14.00">SongsByGenreComponent</text>
</g>
<!-- SongsByGenreComponent&#45;&gt;AppModule -->
<g id="edge12" class="edge">
<title>SongsByGenreComponent&#45;&gt;AppModule</title>
<path fill="none" stroke="black" d="M259,-122.04C259,-143.66 259,-177 259,-177 259,-177 1007.11,-177 1007.11,-177"/>
<polygon fill="black" stroke="black" points="1007.11,-180.5 1017.11,-177 1007.11,-173.5 1007.11,-180.5"/>
</g>
<!-- AppComponent  -->
<g id="node15" class="node">
<title>AppComponent </title>
<polygon fill="#80b1d3" stroke="black" points="1113.44,-252 1004.56,-252 1004.56,-216 1113.44,-216 1113.44,-252"/>
<text text-anchor="middle" x="1059" y="-229.8" font-family="Times,serif" font-size="14.00">AppComponent </text>
</g>
<!-- AppModule&#45;&gt;AppComponent  -->
<g id="edge14" class="edge">
<title>AppModule&#45;&gt;AppComponent </title>
<path fill="none" stroke="black" stroke-dasharray="1,5" d="M1059,-187.11C1059,-187.11 1059,-205.99 1059,-205.99"/>
<polygon fill="black" stroke="black" points="1055.5,-205.99 1059,-215.99 1062.5,-205.99 1055.5,-205.99"/>
</g>
<!-- AppRoutingModule -->
<g id="node14" class="node">
<title>AppRoutingModule</title>
<polygon fill="#8dd3c7" stroke="black" points="152.27,-122 149.27,-126 128.27,-126 125.27,-122 23.73,-122 23.73,-86 152.27,-86 152.27,-122"/>
<text text-anchor="middle" x="88" y="-99.8" font-family="Times,serif" font-size="14.00">AppRoutingModule</text>
</g>
<!-- AppRoutingModule&#45;&gt;AppModule -->
<g id="edge13" class="edge">
<title>AppRoutingModule&#45;&gt;AppModule</title>
<path fill="none" stroke="black" d="M88,-122.09C88,-145.13 88,-182 88,-182 88,-182 1007.28,-182 1007.28,-182"/>
<polygon fill="black" stroke="black" points="1007.28,-185.5 1017.28,-182 1007.28,-178.5 1007.28,-185.5"/>
</g>
</g>
</svg>
